# xmcd
# 
# Track frame offsets:
#     150
#     24580
#     44412
#     63305
#     76287
#     91960
#     105267
#     122405
#     136362
#     159650
#     176782
# 
# Disc length: 2549
# 
# Revision: 3
# Processed by: cddbd v1.5.2PL0 Copyright (c) Steve Scherf et al.
# Submitted via: BonkEnc v1.0.6
# 
DISCID=8609f30b
DTITLE=THEE MICHELLE GUN ELEPHANT - MAXIMUM! MAXIMUM!! MAXIMUM!!!
DYEAR=1993
DGENRE=Rock
TTITLE0=Good-Bye Girl 2
TTITLE1=偉大なる大うそつき
TTITLE2=Hey,ドクター
TTITLE3=ブラックタンバリン
TTITLE4=グラグラ
TTITLE5=And I Do Just What I Want
TTITLE6=太陽はまだ
TTITLE7=You Can't Judge A Book By Uts Cover
TTITLE8=忘れじの人
TTITLE9=クールな男
TTITLE10=Viva La Michelle
EXTD=YEAR: 1993.11/25
EXTT0=
EXTT1=
EXTT2=
EXTT3=
EXTT4=
EXTT5=
EXTT6=
EXTT7=
EXTT8=
EXTT9=
EXTT10=
PLAYORDER=
